# Blender 3.3.0
# www.blender.org
mtllib face.mtl
o Face
v -0.500000 0.500000 0.500000
v -0.430830 0.257719 0.500000
v -0.257707 0.430830 0.500000
v -0.257707 0.500000 0.500000
v -0.500000 0.257719 0.500000
v 0.500000 0.500000 0.500000
v 0.430830 0.257719 0.500000
v 0.257707 0.430830 0.500000
v 0.257707 0.500000 0.500000
v 0.500000 0.257719 0.500000
v -0.500000 -0.500000 0.500000
v -0.430830 -0.257719 0.500000
v -0.257707 -0.430830 0.500000
v -0.257707 -0.500000 0.500000
v -0.500000 -0.257719 0.500000
v 0.500000 -0.500000 0.500000
v 0.430830 -0.257719 0.500000
v 0.257707 -0.430830 0.500000
v 0.257707 -0.500000 0.500000
v 0.500000 -0.257719 0.500000
v -0.417273 0.249610 0.476612
v -0.249598 0.417273 0.476611
v 0.417273 0.249610 0.476611
v 0.249598 0.417273 0.476611
v -0.417273 -0.249610 0.476612
v -0.249598 -0.417273 0.476611
v 0.417273 -0.249610 0.476611
v 0.249598 -0.417273 0.476611
vn -0.0000 -0.0000 1.0000
vn 0.5915 0.5915 0.5479
vn -0.5915 -0.5915 0.5479
vn -0.8652 -0.0000 0.5015
vn -0.0000 -0.8652 0.5015
vn 0.8652 -0.0000 0.5015
vn -0.5915 0.5915 0.5479
vn 0.5915 -0.5915 0.5479
vn -0.0000 0.8652 0.5015
vt -0.000000 1.000000
vt 0.069170 0.757719
vt 0.999783 0.202692
vt 0.795976 0.000000
vt 0.242293 0.930830
vt 0.242293 1.000000
vt -0.000000 0.757719
vt 1.000000 1.000000
vt 0.930829 0.757719
vt 0.000003 0.203941
vt 0.203013 0.000636
vt 0.757707 0.930829
vt 0.757707 1.000000
vt 1.000000 0.757719
vt 0.000000 0.000000
vt 0.069170 0.242281
vt 0.999783 0.796080
vt 0.242293 0.069170
vt 0.796713 0.999375
vt 0.242293 0.000000
vt 0.000000 0.242281
vt 1.000000 0.000000
vt 0.930829 0.242281
vt 0.000000 0.797313
vt 0.757707 0.069170
vt 0.203793 1.000000
vt 0.757707 0.000000
vt 1.000000 0.242281
vt 1.000000 0.200904
vt 0.971307 0.217326
vt 0.799083 0.000000
vt 0.781572 0.028349
vt 0.000000 0.200904
vt 0.028309 0.218425
vt 0.200917 0.000000
vt 0.217497 0.028931
vt 1.000000 0.799096
vt 0.971477 0.781593
vt 0.799083 1.000000
vt 0.782238 0.971075
vt 0.000000 0.799096
vt 0.028476 0.782680
vt 0.200917 1.000000
vt 0.218205 0.971656
s 0
usemtl border
f 2/2/1 5/7/1 15/21/1 12/16/1
f 6/8/1 9/13/1 8/12/1 7/9/1 10/14/1
f 7/9/1 17/23/1 20/28/1 10/14/1
f 11/15/1 14/20/1 13/18/1 12/16/1 15/21/1
f 13/18/1 14/20/1 19/27/1 18/25/1
f 3/5/1 4/6/1 1/1/1 5/7/1 2/2/1
f 18/25/1 19/27/1 16/22/1 20/28/1 17/23/1
f 4/6/1 3/5/1 8/12/1 9/13/1
usemtl screen
f 22/31/1 21/29/1 25/37/1 26/39/1 28/43/1 27/41/1 23/33/1 24/35/1
usemtl light
f 12/17/2 13/19/2 26/40/2 25/38/2
f 7/10/3 8/11/3 24/36/3 23/34/3
f 23/34/4 27/42/4 17/24/4 7/10/4
f 24/36/5 8/11/5 3/4/5 22/32/5
f 25/38/6 21/30/6 2/3/6 12/17/6
f 18/26/7 17/24/7 27/42/7 28/44/7
f 3/4/8 2/3/8 21/30/8 22/32/8
f 28/44/9 26/40/9 13/19/9 18/26/9
